<svg width="613" height="613" viewBox="0 0 613 613" fill="none" xmlns="http://www.w3.org/2000/svg">
<path d="M305.48 74.53C305.48 94.74 298.24 112.2 283.78 126.95C269.31 141.69 251.7 149.06 230.95 149.06C210.2 149.06 193.28 141.69 178.54 126.95C163.8 112.21 156.43 94.74 156.43 74.53C156.43 54.32 163.8 36.86 178.54 22.11C193.28 7.37 210.75 0 230.95 0C251.15 0 269.3 7.37 283.78 22.11C298.25 36.85 305.48 54.33 305.48 74.53Z" fill="white"/>
<path d="M574.11 253.89C548.45 228.23 512.69 215.4 466.82 215.4C428.05 215.4 392.7 223.05 360.76 238.33C328.82 253.62 302.47 273.55 281.73 298.12C258.8 324.33 242.01 351.76 231.36 380.43C220.71 409.09 215.39 439.54 215.39 471.75C215.39 474.78 215.5 477.76 215.65 480.71C210.2 484.82 202.62 492.06 192.87 502.47C176.76 519.67 162.7 528.27 150.69 528.27C149.05 528.27 147.41 527.86 145.78 527.04C144.14 526.22 143.32 524.17 143.32 520.9C143.32 518.17 144.41 513.26 146.6 506.16C148.78 499.06 152.33 489.78 157.25 478.31L219.49 341.54C224.95 331.71 228.5 322.16 230.14 312.88C231.78 303.6 232.6 294.86 232.6 286.67C232.6 267.01 226.46 250.22 214.17 236.3C201.89 222.38 183.46 215.42 158.89 215.42C143.6 215.42 125.99 220.88 106.07 231.8C86.1398 242.72 69.0698 254.46 54.8798 267.02C39.0398 280.67 25.9398 293.64 15.5698 305.92C5.18976 318.2 0.00976562 327.08 0.00976562 332.54C0.00976562 334.18 2.18977 338 6.55977 344.01C10.9198 350.02 15.2898 353.02 19.6598 353.02C23.4798 353.02 35.6298 342.24 56.1098 320.67C76.5798 299.11 90.3698 288.32 97.4698 288.32C100.2 288.32 102.38 289.28 104.02 291.19C105.66 293.1 106.48 296.24 106.48 300.61C106.48 304.98 105.52 310.03 103.61 315.76C101.7 321.49 98.5598 329 94.1898 338.28L16.3798 499.58C13.0998 507.77 10.0998 515.83 7.36977 523.74C4.63977 531.66 3.27977 540.26 3.27977 549.54C3.27977 564.28 8.45977 577.53 18.8398 589.26C29.2098 600.99 45.8698 606.87 68.7998 606.87C102.1 606.87 139.37 590.76 180.59 558.55C199.27 543.95 213.7 531.78 223.92 522C230.31 539.3 240.27 554.77 253.89 568.38C279.55 594.04 315.31 606.87 361.18 606.87C403.77 606.87 439.53 599.5 468.47 584.76C497.4 570.02 523.34 550.09 546.27 524.97C567.56 501.49 583.94 474.19 595.41 443.07C606.88 411.95 612.61 381.38 612.61 351.34C612.61 312.03 599.78 279.54 574.12 253.88L574.11 253.89ZM479.92 371.41C472 402.81 462.04 432.97 450.03 461.91C438.01 490.85 423.96 515.69 407.85 536.44C391.74 557.19 376.04 567.56 360.76 567.56C352.57 567.56 346.43 564.42 342.33 558.14C338.24 551.86 336.19 543.26 336.19 532.34C336.19 512.69 339.88 486.75 347.25 454.54C354.62 422.33 364.86 390.93 377.96 360.36C391.61 328.69 406.07 303.31 421.36 284.19C436.65 265.08 451.66 255.53 466.4 255.53C475.13 255.53 481.55 258.4 485.65 264.13C489.75 269.86 491.79 278.46 491.79 289.93C491.79 312.86 487.83 340.03 479.92 371.42V371.41Z" fill="white"/>
</svg>
